<svg width="180" height="180" viewBox="0 0 180 180" fill="none" xmlns="http://www.w3.org/2000/svg">
  <rect width="180" height="180" rx="36" fill="#6C3FE8"/>
  <path d="M36 64C36 53.5 44.5 45 55 45H125C135.5 45 144 53.5 144 64V105C144 115.5 135.5 124 125 124H100L78 140V124H55C44.5 124 36 115.5 36 105V64Z" fill="white" fill-opacity="0.15"/>
  <path d="M38 62C38 51.5 46.5 43 57 43H123C133.5 43 142 51.5 142 62V103C142 113.5 133.5 122 123 122H98L76 138V122H57C46.5 122 38 113.5 38 103V62Z" fill="white"/>
  <circle cx="68" cy="83" r="8" fill="#6C3FE8"/>
  <circle cx="90" cy="83" r="8" fill="#6C3FE8"/>
  <circle cx="112" cy="83" r="8" fill="#6C3FE8"/>
</svg>
