<svg xmlns="http://www.w3.org/2000/svg" viewBox="0 0 100 86" width="100" height="86">
  <defs>
    <linearGradient id="g" x1="30%" y1="0%" x2="70%" y2="100%">
      <stop offset="0%" stop-color="#8a2be2"/>
      <stop offset="50%" stop-color="#b030e8"/>
      <stop offset="100%" stop-color="#e040fb"/>
    </linearGradient>
  </defs>
  <!-- Left leg -->
  <path d="M 0 86 L 36 0 L 50 0 L 14 86 Z" fill="url(#g)"/>
  <!-- Right leg -->
  <path d="M 50 0 L 64 0 L 100 86 L 86 86 Z" fill="url(#g)"/>
  <!-- Base bar -->
  <path d="M 14 86 L 14 72 L 86 72 L 86 86 Z" fill="url(#g)"/>
  <!-- Top cap rounded -->
  <ellipse cx="50" cy="4" rx="14" ry="8" fill="#b030e8"/>
  <!-- Bottom-left cap -->
  <ellipse cx="7" cy="82" rx="9" ry="8" fill="#9030d0" transform="rotate(-60,7,82)"/>
  <!-- Bottom-right cap -->
  <ellipse cx="93" cy="82" rx="9" ry="8" fill="#c040f0" transform="rotate(60,93,82)"/>
  <!-- Inner triangle cutout -->
  <path d="M 35 68 L 50 36 L 65 68 Z" fill="#0d0520"/>
  <!-- Highlight left -->
  <path d="M 4 80 L 37 5 L 42 9 L 10 84 Z" fill="white" opacity="0.15"/>
</svg>
