<?xml version="1.0" encoding="UTF-8"?>
<svg xmlns="http://www.w3.org/2000/svg" viewBox="0 0 512 512" width="512" height="512">
  <title>Alpha Chat Logo (Flat)</title>
  <defs>
    <style>
      .ribbon { fill-rule: evenodd; }
    </style>
  </defs>
  <path class="ribbon" d="M 236.8 89.5 L 235.2 90.0 L 233.7 90.5 L 232.3 91.0 L 229.0 92.0 L 226.6 93.0 L 224.3 94.0 L 222.3 95.0 L 220.3 96.0 L 218.6 97.0 L 216.9 98.0 L 215.3 99.0 L 213.9 100.0 L 212.4 101.0 L 211.0 102.0 L 209.7 103.0 L 208.3 104.0 L 207.0 105.0 L 205.7 106.0 L 204.4 107.0 L 203.3 108.0 L 202.1 109.0 L 201.0 110.0 L 200.1 111.0 L 199.3 112.0 L 198.4 113.0 L 197.6 114.0 L 196.9 115.0 L 196.1 116.0 L 195.4 117.0 L 194.7 118.0 L 194.0 119.0 L 193.3 120.0 L 192.6 121.0 L 191.9 122.0 L 191.1 123.0 L 190.6 124.0 L 189.9 125.0 L 189.3 126.0 L 188.7 127.0 L 188.3 128.0 L 187.7 129.0 L 187.3 130.0 L 186.7 131.0 L 186.1 132.0 L 185.6 133.0 L 185.0 134.0 L 184.4 135.0 L 183.9 136.0 L 183.3 137.0 L 182.7 138.0 L 182.1 139.0 L 181.6 140.0 L 181.0 141.0 L 180.4 142.0 L 179.9 143.0 L 179.1 144.0 L 178.6 145.0 L 178.0 146.0 L 177.4 147.0 L 176.9 148.0 L 176.3 149.0 L 175.9 150.0 L 175.4 151.0 L 174.9 152.0 L 174.4 153.0 L 173.9 154.0 L 173.3 155.0 L 172.7 156.0 L 172.0 157.0 L 171.4 158.0 L 170.9 159.0 L 170.3 160.0 L 169.7 161.0 L 169.3 162.0 L 168.7 163.0 L 168.3 164.0 L 167.7 165.0 L 167.1 166.0 L 166.6 167.0 L 166.0 168.0 L 165.3 169.0 L 164.7 170.0 L 164.0 171.0 L 163.4 172.0 L 162.9 173.0 L 162.3 174.0 L 161.7 175.0 L 161.3 176.0 L 160.7 177.0 L 160.1 178.0 L 159.6 179.0 L 159.0 180.0 L 158.4 181.0 L 157.9 182.0 L 157.3 183.0 L 156.7 184.0 L 156.3 185.0 L 155.7 186.0 L 155.1 187.0 L 154.6 188.0 L 154.0 189.0 L 153.3 190.0 L 152.7 191.0 L 152.1 192.0 L 151.6 193.0 L 151.1 194.0 L 150.6 195.0 L 150.1 196.0 L 149.6 197.0 L 149.0 198.0 L 148.3 199.0 L 147.7 200.0 L 147.0 201.0 L 146.4 202.0 L 145.7 203.0 L 145.3 204.0 L 144.7 205.0 L 144.3 206.0 L 143.7 207.0 L 143.3 208.0 L 142.7 209.0 L 142.1 210.0 L 141.6 211.0 L 141.0 212.0 L 140.4 213.0 L 139.9 214.0 L 139.1 215.0 L 138.6 216.0 L 138.1 217.0 L 137.6 218.0 L 137.0 219.0 L 136.3 220.0 L 135.7 221.0 L 135.1 222.0 L 134.6 223.0 L 133.9 224.0 L 133.3 225.0 L 132.7 226.0 L 132.3 227.0 L 131.7 228.0 L 131.3 229.0 L 130.7 230.0 L 130.1 231.0 L 129.6 232.0 L 129.0 233.0 L 128.4 234.0 L 127.9 235.0 L 127.3 236.0 L 126.7 237.0 L 126.1 238.0 L 125.6 239.0 L 125.0 240.0 L 124.4 241.0 L 123.9 242.0 L 123.3 243.0 L 122.7 244.0 L 122.1 245.0 L 121.6 246.0 L 121.0 247.0 L 120.4 248.0 L 119.9 249.0 L 119.3 250.0 L 118.7 251.0 L 118.3 252.0 L 117.7 253.0 L 117.1 254.0 L 116.6 255.0 L 116.0 256.0 L 115.3 257.0 L 114.7 258.0 L 114.1 259.0 L 113.6 260.0 L 113.1 261.0 L 112.6 262.0 L 112.0 263.0 L 111.4 264.0 L 110.9 265.0 L 110.1 266.0 L 109.6 267.0 L 109.0 268.0 L 108.4 269.0 L 107.9 270.0 L 107.4 271.0 L 106.9 272.0 L 106.3 273.0 L 105.7 274.0 L 105.1 275.0 L 104.6 276.0 L 104.0 277.0 L 103.4 278.0 L 102.9 279.0 L 102.4 280.0 L 101.9 281.0 L 101.3 282.0 L 100.7 283.0 L 100.3 284.0 L 99.7 285.0 L 99.1 286.0 L 98.6 287.0 L 98.0 288.0 L 97.4 289.0 L 96.9 290.0 L 96.3 291.0 L 95.7 292.0 L 95.3 293.0 L 94.7 294.0 L 94.3 295.0 L 93.6 296.0 L 93.0 297.0 L 92.3 298.0 L 91.7 299.0 L 91.0 300.0 L 90.4 301.0 L 89.7 302.0 L 89.3 303.0 L 88.7 304.0 L 88.3 305.0 L 87.7 306.0 L 87.1 307.0 L 86.6 308.0 L 86.1 309.0 L 85.6 310.0 L 85.1 311.0 L 84.6 312.0 L 84.0 313.0 L 83.6 314.0 L 83.0 315.0 L 82.4 316.0 L 81.9 317.0 L 81.1 318.0 L 80.6 319.0 L 80.0 320.0 L 79.4 321.0 L 78.9 322.0 L 78.1 323.0 L 77.6 324.0 L 77.0 325.0 L 76.4 326.0 L 76.0 327.0 L 75.4 328.0 L 74.9 329.0 L 74.3 330.0 L 73.7 331.0 L 73.1 332.0 L 72.6 333.0 L 71.9 334.0 L 71.3 335.0 L 70.7 336.0 L 70.3 337.0 L 69.7 338.0 L 69.1 339.0 L 68.6 340.0 L 68.0 341.0 L 67.4 342.0 L 66.9 343.0 L 66.3 344.0 L 65.7 345.0 L 65.3 346.0 L 64.7 347.0 L 64.3 348.0 L 63.7 349.0 L 63.1 350.0 L 62.6 351.0 L 62.0 352.0 L 61.4 353.0 L 60.9 354.0 L 60.3 355.0 L 59.7 356.0 L 59.3 357.0 L 58.7 358.0 L 58.1 359.0 L 57.6 360.0 L 57.0 361.0 L 56.4 362.0 L 55.9 363.0 L 55.3 364.0 L 54.7 365.0 L 54.1 366.0 L 53.6 367.0 L 53.0 368.0 L 52.4 369.0 L 52.0 370.0 L 51.4 371.0 L 50.9 372.0 L 50.3 373.0 L 49.7 374.0 L 49.1 375.0 L 48.6 376.0 L 48.0 377.0 L 47.4 378.0 L 46.9 379.0 L 46.4 380.0 L 45.9 381.0 L 45.3 382.0 L 44.7 383.0 L 44.0 384.0 L 43.4 385.0 L 42.9 386.0 L 42.3 387.0 L 41.7 388.0 L 41.3 389.0 L 40.7 390.0 L 40.1 391.0 L 39.6 392.0 L 39.0 393.0 L 38.3 394.0 L 37.7 395.0 L 37.0 396.0 L 36.4 397.0 L 35.9 398.0 L 35.3 399.0 L 34.7 400.0 L 34.3 401.0 L 33.7 402.0 L 33.3 403.0 L 32.7 404.0 L 32.1 405.0 L 31.6 406.0 L 31.0 407.0 L 30.3 408.0 L 29.7 409.0 L 29.1 410.0 L 28.6 411.0 L 28.0 412.0 L 27.4 413.0 L 26.9 414.0 L 26.3 415.0 L 25.7 416.0 L 25.0 417.0 L 24.4 418.0 L 24.0 419.0 L 23.7 419.5 L 23.4 420.0 L 23.3 420.5 L 171.0 420.5 L 171.2 420.0 L 171.5 419.5 L 171.7 419.0 L 172.3 418.0 L 172.9 417.0 L 173.4 416.0 L 174.0 415.0 L 174.6 414.0 L 175.1 413.0 L 175.7 412.0 L 176.3 411.0 L 176.7 410.0 L 177.3 409.0 L 177.9 408.0 L 178.4 407.0 L 179.0 406.0 L 179.6 405.0 L 180.1 404.0 L 180.7 403.0 L 181.3 402.0 L 181.7 401.0 L 182.3 400.0 L 182.9 399.0 L 183.4 398.0 L 183.9 397.0 L 184.4 396.0 L 185.0 395.0 L 185.6 394.0 L 186.1 393.0 L 186.7 392.0 L 187.3 391.0 L 187.9 390.0 L 188.4 389.0 L 188.9 388.0 L 189.4 387.0 L 190.0 386.0 L 190.6 385.0 L 191.1 384.0 L 191.9 383.0 L 192.4 382.0 L 193.1 381.0 L 193.7 380.0 L 194.3 379.0 L 194.7 378.0 L 195.3 377.0 L 195.7 376.0 L 196.3 375.0 L 196.9 374.0 L 197.4 373.0 L 198.0 372.0 L 198.6 371.0 L 199.1 370.0 L 199.7 369.0 L 200.3 368.0 L 200.7 367.0 L 201.3 366.0 L 201.9 365.0 L 202.4 364.0 L 203.0 363.0 L 203.6 362.0 L 204.1 361.0 L 204.7 360.0 L 205.3 359.0 L 205.9 358.0 L 206.4 357.0 L 206.9 356.0 L 207.4 355.0 L 207.9 354.0 L 208.4 353.0 L 209.0 352.0 L 209.4 351.0 L 210.0 350.0 L 210.7 349.0 L 211.3 348.0 L 211.9 347.0 L 212.4 346.0 L 212.9 345.0 L 213.4 344.0 L 214.0 343.0 L 214.6 342.0 L 215.1 341.0 L 215.9 340.0 L 216.4 339.0 L 217.0 338.0 L 217.6 337.0 L 218.1 336.0 L 218.6 335.0 L 219.1 334.0 L 219.6 333.0 L 220.1 332.0 L 220.9 331.0 L 221.4 330.0 L 222.0 329.0 L 222.6 328.0 L 223.1 327.0 L 223.7 326.0 L 224.3 325.0 L 224.9 324.0 L 225.4 323.0 L 226.0 322.0 L 226.6 321.0 L 227.1 320.0 L 227.7 319.0 L 228.3 318.0 L 228.9 317.0 L 229.4 316.0 L 230.0 315.0 L 230.6 314.0 L 231.0 313.0 L 231.6 312.0 L 232.1 311.0 L 232.7 310.0 L 233.3 309.0 L 233.9 308.0 L 234.4 307.0 L 235.1 306.0 L 235.7 305.0 L 236.3 304.0 L 236.7 303.0 L 237.3 302.0 L 237.7 301.0 L 238.3 300.0 L 238.9 299.0 L 239.4 298.0 L 239.9 297.0 L 240.4 296.0 L 241.0 295.0 L 241.6 294.0 L 242.1 293.0 L 242.6 292.0 L 243.1 291.0 L 243.7 290.0 L 244.3 289.0 L 244.9 288.0 L 245.4 287.0 L 246.0 286.0 L 246.6 285.0 L 247.1 284.0 L 247.7 283.0 L 248.3 282.0 L 248.7 281.0 L 249.3 280.0 L 249.7 279.0 L 250.3 278.0 L 250.9 277.0 L 251.4 276.0 L 273.3 275.0 L 295.1 274.0 L 316.9 273.0 L 338.4 272.0 L 359.9 271.0 L 381.0 270.0 L 402.1 269.0 L 401.7 268.0 L 401.1 267.0 L 400.4 266.0 L 399.9 265.0 L 399.1 264.0 L 398.6 263.0 L 397.9 262.0 L 397.3 261.0 L 396.7 260.0 L 396.3 259.0 L 395.7 258.0 L 395.3 257.0 L 394.7 256.0 L 394.1 255.0 L 393.6 254.0 L 393.0 253.0 L 392.4 252.0 L 391.9 251.0 L 391.3 250.0 L 390.7 249.0 L 390.3 248.0 L 389.7 247.0 L 389.3 246.0 L 388.7 245.0 L 388.1 244.0 L 387.6 243.0 L 387.0 242.0 L 386.3 241.0 L 385.7 240.0 L 385.1 239.0 L 384.6 238.0 L 384.1 237.0 L 383.6 236.0 L 383.0 235.0 L 382.4 234.0 L 381.9 233.0 L 381.1 232.0 L 380.6 231.0 L 380.0 230.0 L 379.4 229.0 L 379.0 228.0 L 378.6 227.0 L 378.0 226.0 L 377.6 225.0 L 377.0 224.0 L 376.3 223.0 L 375.7 222.0 L 375.1 221.0 L 374.6 220.0 L 374.0 219.0 L 373.4 218.0 L 372.9 217.0 L 372.4 216.0 L 371.9 215.0 L 371.1 214.0 L 370.6 213.0 L 370.0 212.0 L 369.4 211.0 L 368.9 210.0 L 368.1 209.0 L 367.6 208.0 L 367.0 207.0 L 366.4 206.0 L 366.0 205.0 L 365.4 204.0 L 364.9 203.0 L 364.3 202.0 L 363.7 201.0 L 363.1 200.0 L 362.6 199.0 L 361.9 198.0 L 361.3 197.0 L 360.7 196.0 L 360.3 195.0 L 359.7 194.0 L 359.3 193.0 L 358.7 192.0 L 358.1 191.0 L 357.4 190.0 L 356.9 189.0 L 356.3 188.0 L 355.7 187.0 L 355.1 186.0 L 354.6 185.0 L 354.0 184.0 L 353.6 183.0 L 353.0 182.0 L 352.4 181.0 L 351.9 180.0 L 351.3 179.0 L 350.7 178.0 L 350.1 177.0 L 349.6 176.0 L 349.0 175.0 L 348.4 174.0 L 347.9 173.0 L 347.3 172.0 L 346.7 171.0 L 346.3 170.0 L 345.7 169.0 L 345.1 168.0 L 344.4 167.0 L 343.9 166.0 L 343.1 165.0 L 342.6 164.0 L 342.0 163.0 L 341.4 162.0 L 341.0 161.0 L 340.6 160.0 L 340.0 159.0 L 339.4 158.0 L 338.9 157.0 L 338.1 156.0 L 337.6 155.0 L 336.9 154.0 L 336.3 153.0 L 335.7 152.0 L 335.3 151.0 L 334.7 150.0 L 334.3 149.0 L 333.7 148.0 L 333.1 147.0 L 332.6 146.0 L 332.0 145.0 L 331.4 144.0 L 330.9 143.0 L 330.1 142.0 L 329.6 141.0 L 329.0 140.0 L 328.4 139.0 L 328.0 138.0 L 327.4 137.0 L 326.9 136.0 L 326.3 135.0 L 325.7 134.0 L 325.1 133.0 L 324.6 132.0 L 323.9 131.0 L 323.3 130.0 L 322.7 129.0 L 322.3 128.0 L 321.7 127.0 L 321.3 126.0 L 320.6 125.0 L 320.0 124.0 L 319.3 123.0 L 318.7 122.0 L 318.0 121.0 L 317.3 120.0 L 316.4 119.0 L 315.7 118.0 L 314.9 117.0 L 314.0 116.0 L 313.0 115.0 L 312.1 114.0 L 311.3 113.0 L 310.4 112.0 L 309.6 111.0 L 308.7 110.0 L 307.7 109.0 L 306.7 108.0 L 305.6 107.0 L 304.3 106.0 L 303.0 105.0 L 301.6 104.0 L 300.3 103.0 L 299.0 102.0 L 297.6 101.0 L 296.0 100.0 L 294.4 99.0 L 292.7 98.0 L 291.1 97.0 L 289.1 96.0 L 287.0 95.0 L 284.9 94.0 L 282.7 93.0 L 280.3 92.0 L 277.1 91.0 L 275.7 90.5 L 274.2 90.0 L 272.8 89.5 Z" fill="#ba2ef1" />
  <path class="ribbon" d="M 256.3 274.5 L 256.6 275.0 L 256.8 275.5 L 257.1 276.0 L 257.7 277.0 L 258.3 278.0 L 258.7 279.0 L 259.3 280.0 L 259.9 281.0 L 260.4 282.0 L 261.0 283.0 L 261.6 284.0 L 262.1 285.0 L 262.9 286.0 L 263.4 287.0 L 263.9 288.0 L 264.4 289.0 L 265.0 290.0 L 265.6 291.0 L 266.1 292.0 L 266.7 293.0 L 267.3 294.0 L 268.0 295.0 L 268.6 296.0 L 269.1 297.0 L 269.7 298.0 L 270.3 299.0 L 270.9 300.0 L 271.4 301.0 L 272.0 302.0 L 272.6 303.0 L 273.1 304.0 L 273.7 305.0 L 274.3 306.0 L 274.7 307.0 L 275.3 308.0 L 275.7 309.0 L 276.3 310.0 L 276.9 311.0 L 277.4 312.0 L 278.0 313.0 L 278.6 314.0 L 279.1 315.0 L 279.9 316.0 L 280.4 317.0 L 281.0 318.0 L 281.6 319.0 L 282.1 320.0 L 282.7 321.0 L 283.3 322.0 L 283.9 323.0 L 284.4 324.0 L 285.0 325.0 L 285.6 326.0 L 286.1 327.0 L 286.7 328.0 L 287.3 329.0 L 287.7 330.0 L 288.3 331.0 L 288.7 332.0 L 289.3 333.0 L 289.9 334.0 L 290.6 335.0 L 291.1 336.0 L 291.7 337.0 L 292.3 338.0 L 292.9 339.0 L 293.4 340.0 L 294.0 341.0 L 294.4 342.0 L 295.0 343.0 L 295.6 344.0 L 296.1 345.0 L 296.9 346.0 L 297.4 347.0 L 298.0 348.0 L 298.6 349.0 L 299.1 350.0 L 299.7 351.0 L 300.3 352.0 L 300.9 353.0 L 301.4 354.0 L 301.9 355.0 L 302.4 356.0 L 303.0 357.0 L 303.7 358.0 L 304.3 359.0 L 304.9 360.0 L 305.4 361.0 L 306.1 362.0 L 306.7 363.0 L 307.3 364.0 L 307.7 365.0 L 300.3 366.0 L 292.4 367.0 L 284.6 368.0 L 276.4 369.0 L 268.3 370.0 L 260.0 371.0 L 251.6 372.0 L 250.9 373.0 L 250.4 374.0 L 249.9 375.0 L 249.4 376.0 L 248.9 377.0 L 248.1 378.0 L 247.6 379.0 L 247.0 380.0 L 246.4 381.0 L 245.9 382.0 L 245.3 383.0 L 244.7 384.0 L 244.3 385.0 L 243.7 386.0 L 243.1 387.0 L 242.6 388.0 L 242.0 389.0 L 241.4 390.0 L 240.9 391.0 L 240.3 392.0 L 239.7 393.0 L 239.3 394.0 L 238.7 395.0 L 238.1 396.0 L 237.6 397.0 L 237.1 398.0 L 236.6 399.0 L 236.0 400.0 L 235.4 401.0 L 234.9 402.0 L 234.4 403.0 L 233.9 404.0 L 233.3 405.0 L 232.7 406.0 L 232.3 407.0 L 231.7 408.0 L 231.3 409.0 L 230.7 410.0 L 230.1 411.0 L 229.4 412.0 L 228.9 413.0 L 228.3 414.0 L 227.7 415.0 L 227.1 416.0 L 226.6 417.0 L 226.1 418.0 L 225.7 419.0 L 225.5 419.5 L 225.2 420.0 L 225.0 420.5 L 286.5 420.5 L 286.2 420.0 L 285.8 419.5 L 285.6 419.0 L 285.1 418.0 L 284.6 417.0 L 284.0 416.0 L 283.3 415.0 L 282.7 414.0 L 282.1 413.0 L 281.6 412.0 L 280.9 411.0 L 280.3 410.0 L 279.7 409.0 L 279.3 408.0 L 278.7 407.0 L 278.3 406.0 L 277.7 405.0 L 277.1 404.0 L 276.6 403.0 L 276.0 402.0 L 275.4 401.0 L 274.9 400.0 L 274.1 399.0 L 273.6 398.0 L 273.0 397.0 L 272.4 396.0 L 271.9 395.0 L 271.3 394.0 L 270.7 393.0 L 270.1 392.0 L 269.6 391.0 L 269.0 390.0 L 268.3 389.0 L 267.7 388.0 L 267.0 387.0 L 266.4 386.0 L 266.0 385.0 L 265.4 384.0 L 264.9 383.0 L 264.4 382.0 L 263.9 381.0 L 263.3 380.0 L 262.7 379.0 L 262.0 378.0 L 261.4 377.0 L 260.9 376.0 L 260.3 375.0 L 259.7 374.0 L 259.3 373.0 L 258.7 372.0 L 287.0 371.0 L 315.1 370.0 L 343.4 369.0 L 371.6 368.0 L 399.9 367.0 L 428.0 366.0 L 456.1 365.0 L 455.6 364.0 L 455.0 363.0 L 454.4 362.0 L 453.9 361.0 L 453.1 360.0 L 452.6 359.0 L 452.0 358.0 L 451.4 357.0 L 451.0 356.0 L 450.4 355.0 L 449.9 354.0 L 449.3 353.0 L 448.7 352.0 L 448.1 351.0 L 447.6 350.0 L 446.9 349.0 L 446.3 348.0 L 445.9 347.0 L 445.4 346.0 L 444.9 345.0 L 444.4 344.0 L 443.9 343.0 L 443.3 342.0 L 442.7 341.0 L 442.0 340.0 L 441.4 339.0 L 440.9 338.0 L 440.3 337.0 L 439.7 336.0 L 439.3 335.0 L 438.7 334.0 L 438.1 333.0 L 437.6 332.0 L 437.0 331.0 L 436.4 330.0 L 435.9 329.0 L 435.1 328.0 L 434.6 327.0 L 434.0 326.0 L 433.4 325.0 L 432.9 324.0 L 432.3 323.0 L 431.7 322.0 L 431.3 321.0 L 430.7 320.0 L 430.1 319.0 L 429.6 318.0 L 429.0 317.0 L 428.4 316.0 L 427.9 315.0 L 427.3 314.0 L 426.7 313.0 L 426.3 312.0 L 425.7 311.0 L 425.1 310.0 L 424.6 309.0 L 424.0 308.0 L 423.4 307.0 L 422.9 306.0 L 422.3 305.0 L 421.7 304.0 L 421.3 303.0 L 420.7 302.0 L 420.1 301.0 L 419.6 300.0 L 419.0 299.0 L 418.4 298.0 L 417.9 297.0 L 417.3 296.0 L 416.7 295.0 L 416.1 294.0 L 415.6 293.0 L 415.0 292.0 L 414.4 291.0 L 413.9 290.0 L 413.3 289.0 L 412.7 288.0 L 412.1 287.0 L 411.6 286.0 L 411.0 285.0 L 410.4 284.0 L 409.9 283.0 L 409.1 282.0 L 408.6 281.0 L 408.1 280.0 L 407.6 279.0 L 407.0 278.0 L 406.3 277.0 L 405.7 276.0 L 405.5 275.5 L 405.2 275.0 L 404.8 274.5 Z" fill="#ee48ff" />
  <path class="ribbon" d="M 311.3 370.5 L 311.4 371.0 L 311.7 371.5 L 311.9 372.0 L 312.4 373.0 L 312.9 374.0 L 313.3 375.0 L 313.7 376.0 L 314.3 377.0 L 314.9 378.0 L 315.4 379.0 L 316.0 380.0 L 316.7 381.0 L 317.3 382.0 L 318.0 383.0 L 318.6 384.0 L 319.1 385.0 L 319.7 386.0 L 320.3 387.0 L 320.7 388.0 L 321.3 389.0 L 321.9 390.0 L 322.4 391.0 L 323.0 392.0 L 323.6 393.0 L 324.1 394.0 L 324.7 395.0 L 325.3 396.0 L 325.7 397.0 L 326.3 398.0 L 326.9 399.0 L 327.6 400.0 L 328.1 401.0 L 328.9 402.0 L 329.4 403.0 L 330.0 404.0 L 330.6 405.0 L 331.1 406.0 L 331.6 407.0 L 332.1 408.0 L 332.6 409.0 L 333.1 410.0 L 333.9 411.0 L 334.4 412.0 L 335.0 413.0 L 335.7 414.0 L 336.3 415.0 L 337.0 416.0 L 337.6 417.0 L 338.1 418.0 L 338.7 419.0 L 339.0 419.5 L 339.2 420.0 L 339.5 420.5 L 487.5 420.5 L 487.2 420.0 L 487.0 419.5 L 486.7 419.0 L 486.1 418.0 L 485.6 417.0 L 485.0 416.0 L 484.4 415.0 L 483.9 414.0 L 483.3 413.0 L 482.7 412.0 L 482.3 411.0 L 481.7 410.0 L 481.1 409.0 L 480.6 408.0 L 480.0 407.0 L 479.4 406.0 L 478.9 405.0 L 478.1 404.0 L 477.6 403.0 L 477.0 402.0 L 476.4 401.0 L 475.9 400.0 L 475.3 399.0 L 474.7 398.0 L 474.1 397.0 L 473.6 396.0 L 473.0 395.0 L 472.4 394.0 L 471.9 393.0 L 471.1 392.0 L 470.6 391.0 L 470.1 390.0 L 469.6 389.0 L 469.1 388.0 L 468.6 387.0 L 468.0 386.0 L 467.4 385.0 L 466.9 384.0 L 466.1 383.0 L 465.6 382.0 L 465.0 381.0 L 464.4 380.0 L 463.9 379.0 L 463.4 378.0 L 462.9 377.0 L 462.3 376.0 L 461.7 375.0 L 461.1 374.0 L 460.6 373.0 L 460.0 372.0 L 459.7 371.5 L 459.4 371.0 L 459.3 370.5 Z" fill="#e247ff" />
</svg>